<?xml version="1.0" standalone="no"?>
<!DOCTYPE svg PUBLIC "-//W3C//DTD SVG 20010904//EN"
 "http://www.w3.org/TR/2001/REC-SVG-20010904/DTD/svg10.dtd">
<svg version="1.0" xmlns="http://www.w3.org/2000/svg"
 width="626.000000pt" height="404.000000pt" viewBox="0 0 626.000000 404.000000"
 preserveAspectRatio="xMidYMid meet">

<g transform="translate(0.000000,404.000000) scale(0.100000,-0.100000)"
fill="#000000" stroke="none">
<path d="M5805 4031 c11 -5 23 -7 27 -4 4 2 11 -14 14 -37 4 -22 9 -39 11 -36
3 3 2 23 -2 45 -6 38 -9 41 -38 40 -27 0 -29 -2 -12 -8z"/>
<path d="M5870 4010 c0 -16 2 -30 4 -30 2 0 6 14 8 30 3 17 1 30 -4 30 -4 0
-8 -13 -8 -30z"/>
<path d="M5899 4033 c-1 -5 -2 -35 -4 -69 -2 -48 -58 -276 -72 -293 -2 -3 -19
3 -38 12 -31 15 -36 15 -41 2 -4 -8 -4 -24 -1 -35 4 -15 0 -19 -17 -17 -14 1
-21 -3 -20 -14 1 -11 -5 -14 -22 -11 -20 4 -24 0 -24 -21 0 -15 13 -41 30 -61
l31 -34 -31 -7 c-16 -4 -30 -11 -30 -15 0 -13 41 -51 65 -60 11 -4 20 -16 20
-26 0 -11 7 -19 15 -19 19 0 33 -22 24 -36 -8 -14 14 -29 46 -29 24 -1 24 -1
6 -15 -18 -14 -18 -15 4 -33 20 -16 20 -19 6 -31 -21 -18 -69 -8 -141 28 -47
24 -57 26 -62 14 -4 -9 -1 -24 6 -34 10 -17 8 -19 -16 -19 -47 0 -158 27 -224
54 -34 14 -66 23 -71 20 -27 -17 73 -153 149 -203 l46 -31 -36 0 c-25 0 -37
-5 -37 -14 0 -22 57 -64 95 -72 l35 -6 -23 -19 -22 -18 35 -1 34 0 -24 -17
c-14 -9 -27 -18 -29 -19 -2 -2 -5 -14 -6 -26 -4 -37 -4 -38 -21 -31 -11 4 -12
9 -5 16 15 15 14 40 -1 31 -10 -6 -10 -4 0 7 17 19 15 30 -5 22 -16 -6 -16 -5
0 17 26 37 21 39 -30 14 -25 -13 -54 -24 -64 -24 -28 0 -49 11 -49 26 0 7 -6
11 -14 8 -11 -4 -13 0 -9 15 6 23 -6 28 -24 10 -9 -9 -14 -2 -21 27 -13 52
-29 131 -36 174 -4 31 -4 32 6 13 11 -24 34 -33 25 -10 -21 51 -21 52 -5 40
26 -22 26 -4 2 65 -20 59 -51 203 -69 325 -12 77 -25 37 -86 -262 -43 -210
-68 -291 -90 -291 -10 0 -21 5 -24 10 -11 18 -25 10 -25 -15 0 -16 -6 -25 -15
-25 -8 0 -15 -4 -15 -9 0 -5 -9 -11 -19 -14 -24 -6 -19 -37 10 -63 26 -24 24
-34 -8 -34 l-26 0 23 -25 c13 -13 31 -27 41 -30 10 -3 16 -12 13 -19 -3 -8 4
-16 16 -19 14 -3 20 -12 18 -23 -2 -13 5 -20 27 -25 26 -5 27 -7 11 -14 -17
-8 -17 -9 -2 -20 9 -7 14 -19 11 -28 -5 -12 -14 -13 -48 -5 -23 5 -57 18 -75
29 -43 25 -45 24 -38 -6 6 -23 4 -25 -31 -25 -21 0 -75 13 -121 29 -46 15 -85
24 -88 19 -9 -14 34 -75 92 -127 51 -47 54 -51 30 -51 -14 0 -26 -4 -26 -8 0
-17 49 -54 73 -56 24 -1 24 -2 10 -18 -15 -17 -14 -18 8 -18 23 -1 23 -1 6
-14 -10 -8 -20 -23 -21 -33 -2 -10 -9 -19 -17 -19 -8 -1 -20 -2 -27 -3 -10 -1
-12 -14 -8 -51 4 -30 2 -50 -4 -50 -6 0 -10 -9 -10 -20 0 -24 35 -40 85 -40
26 0 33 -4 30 -17 -1 -10 -7 -17 -11 -17 -5 1 -29 5 -53 9 l-44 7 7 -28 c6
-23 5 -27 -5 -16 -7 6 -17 12 -23 12 -5 0 -2 -6 9 -13 11 -9 15 -19 11 -28 -4
-8 0 -5 9 6 9 12 19 16 23 10 4 -6 22 -23 40 -38 32 -26 31 -34 -2 -21 -9 3
-16 14 -16 23 0 13 -2 13 -9 2 -6 -9 -11 -10 -15 -3 -12 20 -38 1 -33 -24 2
-13 0 -21 -4 -18 -13 8 -11 -9 6 -50 9 -20 13 -42 9 -48 -4 -6 -3 -8 3 -5 6 4
15 -5 22 -19 6 -15 7 -23 1 -19 -5 3 -10 0 -10 -7 0 -19 -38 -20 -114 -4 -62
13 -63 13 -58 -8 2 -12 13 -30 23 -41 18 -20 17 -21 -26 -44 -47 -25 -64 -48
-40 -57 13 -5 71 4 131 22 20 5 21 4 11 -30 -11 -33 -47 -58 -47 -33 0 7 -8
-3 -16 -20 -18 -36 -21 -37 -59 -23 -20 7 -25 15 -20 29 4 12 0 21 -11 25 -22
9 -33 -2 -14 -14 9 -6 10 -10 3 -10 -19 0 -26 20 -13 35 18 21 -4 45 -41 45
-17 0 -34 8 -43 22 -19 27 -32 18 -16 -12 10 -19 9 -21 -7 -18 -10 2 -18 9
-18 15 0 26 -39 40 -106 37 -76 -2 -109 -16 -109 -45 0 -11 -7 -22 -15 -25
-19 -8 -20 -43 -2 -50 8 -3 26 0 40 5 22 9 27 8 27 -4 0 -8 -5 -15 -10 -15 -6
0 -8 -10 -4 -24 3 -13 -2 -40 -11 -61 -16 -39 -10 -54 23 -55 8 0 12 -16 12
-45 0 -25 3 -45 8 -45 4 0 7 19 7 42 0 26 5 43 14 46 11 4 13 -5 9 -42 -4 -30
-2 -46 6 -46 8 0 10 36 8 120 -3 103 -1 120 12 120 9 0 16 5 16 10 0 6 4 10
10 10 15 0 24 -49 13 -73 -6 -12 -15 -41 -20 -64 -9 -38 -8 -43 8 -48 14 -5
19 -17 20 -43 2 -34 2 -34 6 -7 2 17 11 35 20 42 8 6 12 16 8 22 -3 6 -1 11 6
11 9 0 9 4 -1 15 -6 8 -10 18 -7 22 3 4 0 19 -6 33 -19 46 -15 66 13 68 14 1
35 4 48 7 16 3 20 0 15 -8 -7 -12 -6 -55 3 -92 5 -19 4 -19 -10 -2 -14 18 -15
18 -24 0 -5 -10 -12 -32 -15 -50 -5 -26 -3 -33 15 -39 12 -4 24 -1 28 7 6 8
11 0 15 -24 10 -50 22 -47 31 8 3 25 12 45 18 45 20 0 27 -12 15 -26 -7 -8 -7
-14 1 -19 17 -11 11 -49 -10 -63 -22 -14 -28 -69 -10 -103 10 -17 8 -18 -35
-13 -61 9 -71 -14 -25 -61 21 -22 28 -35 20 -40 -6 -4 -15 -17 -20 -30 -5 -14
-20 -24 -39 -28 -34 -7 -71 -39 -71 -62 0 -8 9 -20 19 -27 19 -12 19 -12 -2
-23 -26 -13 -34 -44 -15 -56 9 -6 2 -9 -19 -9 -23 0 -44 -10 -72 -35 -21 -19
-47 -36 -57 -38 -11 -1 -38 -13 -59 -26 l-40 -23 21 23 c20 24 31 75 13 64 -5
-4 -9 2 -9 12 -1 16 -3 15 -20 -6 -11 -13 -20 -29 -20 -37 0 -17 -12 -18 -27
-3 -7 7 -13 2 -18 -18 -5 -15 -8 -31 -7 -34 1 -4 -8 -9 -20 -12 -22 -6 -22 -4
-1 88 6 27 5 29 -10 16 -12 -9 -17 -10 -17 -2 0 7 -5 9 -12 5 -7 -4 -8 -3 -4
4 8 14 -3 64 -14 57 -4 -3 -11 3 -15 13 -5 15 -7 15 -14 2 -9 -16 -9 -49 1
-65 5 -10 4 -33 -6 -70 -2 -11 -5 -27 -6 -35 -2 -27 -34 44 -36 80 -3 63 -2
61 -23 49 -14 -9 -17 -22 -16 -58 3 -59 18 -95 50 -123 14 -12 23 -28 20 -36
-2 -7 -1 -11 4 -8 5 3 14 -1 20 -8 10 -12 8 -13 -8 -9 -11 3 -26 11 -32 19 -6
8 -15 14 -20 14 -5 0 -33 11 -63 25 -66 30 -66 30 -66 5 0 -11 5 -20 12 -20 6
0 8 -3 5 -6 -13 -13 88 -57 137 -60 26 -1 53 -8 60 -15 8 -9 8 -10 -4 -4 -13
8 -13 7 -1 -9 12 -15 12 -19 -2 -34 -16 -15 -17 -15 -17 10 0 14 -6 28 -13 31
-9 3 -12 -5 -9 -32 4 -35 4 -36 -15 -19 -28 25 -40 22 -17 -4 l19 -22 -25 17
c-34 24 -57 23 -39 0 7 -10 9 -15 5 -11 -13 11 -36 -11 -37 -36 0 -11 -3 -15
-6 -8 -2 6 -9 9 -14 6 -6 -3 -6 -11 -2 -18 4 -7 -2 -1 -13 12 -12 13 -21 32
-20 41 1 11 -7 16 -24 16 -15 0 -24 -5 -22 -13 1 -8 -2 -10 -8 -7 -20 12 -65
13 -79 1 -12 -9 -14 -8 -8 6 5 13 1 16 -21 12 -15 -3 -29 -8 -32 -11 -3 -3 5
-3 18 0 12 3 22 2 23 -1 0 -4 2 -15 4 -24 2 -10 -1 -18 -6 -18 -5 0 -9 7 -9
15 0 8 -5 15 -11 15 -6 0 -9 -9 -6 -20 5 -19 4 -20 -24 -3 -19 11 -27 23 -24
33 5 12 4 13 -7 2 -11 -11 -9 -16 7 -29 20 -15 20 -15 -3 -10 -15 3 -25 0 -29
-9 -3 -8 -9 -14 -14 -14 -6 0 -5 9 1 21 7 11 9 23 6 27 -3 3 -6 0 -6 -7 0 -7
-5 -9 -12 -5 -7 5 -9 2 -6 -8 4 -8 3 -20 -2 -27 -4 -8 -9 -1 -13 19 -5 21 -11
29 -19 24 -9 -6 -9 -9 0 -12 7 -2 9 -8 6 -14 -4 -6 -13 -1 -21 13 -14 23 -14
23 -9 -11 2 -19 2 -29 -1 -22 -10 24 -25 12 -21 -17 2 -17 0 -27 -5 -24 -5 3
-6 22 -3 43 7 46 -17 64 -41 30 -12 -17 -18 -19 -29 -9 -12 10 -13 8 -8 -7 5
-16 4 -16 -5 -4 -6 8 -8 22 -6 30 2 8 0 22 -6 30 -8 12 -9 9 -4 -10 l6 -25
-18 23 c-16 20 -19 20 -19 5 -1 -10 -4 -27 -8 -38 -6 -15 -5 -16 2 -6 9 12 11
12 15 0 2 -8 2 -3 0 11 -6 33 5 21 17 -19 6 -23 6 -29 -3 -24 -15 10 -137 11
-131 2 2 -4 0 -10 -6 -14 -5 -3 -10 2 -10 12 0 11 -3 14 -8 7 -4 -6 -17 -17
-30 -23 -15 -8 -21 -18 -18 -28 5 -13 4 -14 -8 -4 -13 11 -12 15 2 30 9 10 20
16 24 14 4 -2 9 0 11 4 9 14 -256 13 -272 0 -8 -7 -12 -7 -9 -2 7 12 -155 12
-187 1 -16 -6 -17 -6 -5 3 11 8 3 10 -32 7 -31 -2 -56 2 -70 13 -22 14 -22 14
-8 -4 10 -13 11 -16 2 -11 -7 4 -17 19 -22 32 -8 20 -16 24 -47 22 l-38 -1 38
-4 c20 -2 37 -8 37 -13 0 -4 -18 -6 -40 -3 -30 4 -40 2 -41 -8 -1 -8 -5 -3 -9
11 l-8 25 -1 -27 c-1 -22 -6 -28 -23 -27 -17 1 -19 2 -5 6 28 7 20 26 -10 20
-16 -3 -32 1 -41 10 -8 7 -17 11 -20 8 -4 -3 0 -10 8 -15 13 -8 13 -10 -1 -10
-8 0 -20 5 -27 12 -9 9 -12 8 -12 -4 0 -9 -5 -20 -11 -24 -8 -5 -10 1 -7 20 6
30 -3 33 -26 10 -20 -20 -21 -30 -1 -14 12 10 15 10 15 -3 0 -23 -16 -29 -30
-12 -7 8 -10 15 -7 15 3 0 -5 12 -18 26 -14 15 -25 31 -25 35 0 15 -58 39 -95
39 -23 0 -35 -5 -35 -14 0 -8 -13 -19 -30 -25 -24 -8 -30 -7 -30 3 0 16 27 29
42 19 6 -3 8 -1 5 4 -8 13 15 23 54 23 37 0 37 9 -4 46 -38 36 -77 54 -117 54
-29 0 -64 -25 -55 -40 3 -4 -9 -13 -25 -19 -21 -7 -30 -17 -30 -32 0 -19 -2
-20 -17 -8 -11 10 -14 10 -9 2 4 -7 4 -13 -1 -14 -4 0 -15 -2 -24 -4 -12 -2
-15 3 -11 24 4 22 3 24 -10 14 -8 -7 -18 -10 -21 -6 -4 3 -7 2 -7 -4 0 -5 -11
-15 -25 -21 -20 -9 -25 -9 -25 3 0 8 6 12 14 9 8 -3 17 -1 20 4 3 5 -8 8 -26
6 -25 -3 -29 -1 -20 8 29 29 -2 35 -63 12 -19 -7 -19 -7 -4 9 9 9 39 21 65 28
58 14 79 28 65 42 -16 16 10 33 46 29 81 -10 137 24 76 46 l-28 9 42 17 c51
22 65 46 25 46 -16 0 -33 5 -39 11 -6 6 -32 10 -57 8 -54 -5 -61 6 -11 15 62
12 119 77 80 92 -11 5 -12 10 -3 24 14 22 3 54 -17 46 -10 -3 -15 1 -15 14 0
24 -33 34 -62 19 -13 -7 -31 -12 -41 -10 -9 1 -20 -5 -23 -13 -10 -25 -19 -19
-21 13 -1 16 5 35 13 42 12 10 12 14 2 20 -10 7 -9 9 3 9 9 0 22 7 30 16 10
13 10 17 -1 24 -11 7 -8 11 13 21 34 15 25 29 -19 29 -42 0 -44 14 -4 35 16 8
35 25 41 38 7 12 19 27 27 33 8 6 17 28 21 49 8 49 31 59 31 14 0 -18 3 -30 6
-26 3 3 6 49 6 103 0 80 3 100 16 111 22 16 43 16 39 1 -1 -9 10 -12 38 -10
43 3 65 16 65 39 0 17 31 14 38 -4 2 -8 -5 -13 -17 -13 -20 0 -21 -4 -17 -87
4 -88 3 -92 -9 -39 -7 33 -24 24 -30 -15 -1 -13 -6 -31 -10 -41 -8 -20 33 -37
45 -18 5 8 12 0 20 -22 11 -30 13 -31 20 -13 5 11 9 30 9 43 2 43 38 20 44
-28 l4 -35 1 38 c3 50 32 53 32 2 0 -19 5 -35 11 -35 7 0 8 14 4 40 -5 30 -3
40 7 40 24 0 36 -15 41 -50 l4 -35 1 38 c2 27 6 37 18 37 10 0 14 6 10 15 -3
8 -1 15 4 15 14 0 12 28 -1 32 -8 3 -6 9 5 20 9 10 12 18 6 21 -6 3 -5 4 1 3
17 -3 22 -31 21 -114 -1 -51 2 -72 11 -72 9 0 11 23 10 85 -1 48 2 85 8 85 5
0 9 5 9 11 0 6 -7 8 -17 4 -14 -5 -15 -3 -6 6 14 14 36 2 29 -18 -5 -11 1 -14
22 -11 21 2 27 8 25 26 -2 16 2 22 17 22 12 0 24 -8 28 -17 8 -20 32 -29 32
-12 0 5 5 7 11 4 6 -4 7 -14 4 -24 -7 -17 -12 -36 -16 -61 -1 -8 -5 1 -9 20
-7 33 -8 31 -10 -20 l-2 -55 -13 70 -13 70 5 -85 c3 -47 8 -88 10 -93 8 -14
23 4 23 29 0 35 30 32 31 -3 1 -21 2 -23 6 -8 3 11 9 25 15 32 13 17 -4 114
-26 142 -9 12 -8 13 5 9 21 -8 39 10 32 30 -4 10 -2 13 5 8 6 -3 15 1 21 11
15 27 23 -36 19 -153 -2 -63 1 -101 7 -101 6 0 9 41 7 108 -4 103 -3 108 19
120 17 9 24 9 27 0 5 -14 78 -15 87 -1 3 6 -3 22 -14 36 -12 15 -21 33 -21 40
0 16 -33 27 -90 29 -74 2 -104 -8 -110 -35 -8 -34 -49 -43 -73 -16 -16 18 -18
18 -13 3 11 -34 -16 -46 -92 -42 -67 3 -71 2 -76 -21 -7 -26 -21 -29 -61 -14
-20 8 -26 16 -22 29 3 13 -2 21 -15 24 -11 3 -17 10 -13 16 3 6 1 11 -4 11
-16 0 -13 -16 5 -34 8 -9 11 -16 5 -16 -16 0 -33 40 -28 62 5 17 2 19 -23 16
-22 -3 -31 1 -41 19 -17 31 -31 29 -19 -3 9 -22 7 -25 -7 -22 -10 2 -18 9 -18
15 0 28 -38 40 -108 37 -38 -2 -73 -7 -79 -10 -5 -3 -3 8 6 24 9 17 16 33 16
37 0 10 -26 5 -39 -7 -6 -7 -24 -13 -40 -13 -23 0 -27 4 -23 23 3 15 0 22 -11
22 -9 0 -19 -4 -22 -10 -9 -15 -25 -12 -25 4 0 19 -17 29 -32 20 -17 -11 -68
-13 -74 -3 -3 5 -1 9 4 9 5 0 18 8 30 18 11 9 34 25 51 34 29 16 41 58 17 58
-6 0 -5 5 2 12 23 23 12 25 -28 6 -38 -19 -87 -17 -75 3 4 5 1 9 -4 9 -6 0
-11 6 -11 14 0 8 -7 13 -17 12 -19 -1 -37 54 -30 91 2 12 0 20 -4 17 -5 -3 -9
-1 -9 5 0 5 -3 18 -7 28 -6 16 -5 16 10 4 15 -12 17 -12 11 4 -5 13 -4 16 4
11 17 -10 15 6 -7 72 -11 31 -25 93 -31 137 -7 44 -14 87 -17 95 -8 27 -20 -9
-48 -145 -14 -72 -28 -140 -31 -152 -4 -19 -11 -23 -45 -23 -39 0 -99 -26 -99
-42 0 -4 -13 -5 -29 -2 -16 3 -38 1 -49 -5 -28 -15 -41 5 -16 24 18 13 18 14
1 20 -25 10 46 45 93 45 33 0 70 14 60 23 -3 2 -14 9 -25 15 -20 11 -19 11 2
12 28 0 73 20 73 33 0 5 -27 8 -64 5 l-64 -4 15 23 c21 31 11 39 -22 17 -15
-10 -42 -17 -60 -16 -18 1 -44 -2 -59 -8 -29 -11 -33 -2 -15 28 9 15 22 17 68
15 45 -3 64 1 96 19 22 13 41 32 44 43 2 10 14 28 28 38 13 11 22 25 19 32 -3
8 2 19 10 26 14 12 54 81 54 94 0 10 -21 5 -47 -12 -15 -10 -41 -18 -58 -18
-28 0 -30 3 -27 28 5 31 -16 37 -42 12 -20 -20 -23 -19 -30 9 -7 30 -31 40
-50 20 -9 -9 -17 -10 -21 -4 -11 17 -25 11 -35 -15 -6 -17 -17 -25 -32 -24
l-23 0 24 10 24 9 -23 25 -23 25 32 0 c19 0 34 6 37 15 4 8 25 24 49 34 46 20
66 42 46 49 -9 3 -9 7 0 18 9 11 8 14 -6 14 -17 0 -17 1 -2 18 28 31 19 32
-33 5 -53 -27 -100 -26 -100 3 0 10 -6 14 -14 11 -10 -4 -12 0 -9 14 6 21 -7
25 -23 9 -11 -11 -37 80 -49 170 -6 44 -6 45 10 20 l16 -25 -6 32 c-6 29 -4
32 11 26 14 -5 16 -3 10 13 -36 92 -54 171 -82 352 -3 17 -9 32 -13 32 -11 0
-46 -141 -82 -335 -5 -27 -19 -87 -31 -132 -21 -76 -37 -99 -53 -73 -3 6 -13
10 -22 10 -11 0 -14 -7 -11 -25 4 -19 1 -25 -11 -23 -9 2 -15 -2 -14 -8 1 -7
-6 -10 -17 -7 -29 8 -26 -32 5 -62 21 -22 22 -25 6 -25 -10 0 -21 -3 -24 -7
-9 -9 32 -53 49 -53 8 0 11 -6 8 -14 -3 -8 3 -16 16 -19 14 -3 20 -12 18 -24
-2 -13 5 -19 32 -24 22 -4 26 -7 13 -8 -27 -1 -29 -9 -7 -25 13 -10 14 -14 2
-23 -13 -11 -58 0 -132 32 -17 7 -18 5 -13 -17 7 -25 6 -26 -36 -21 -23 3 -75
16 -115 29 -40 13 -75 24 -77 24 -24 0 50 -106 98 -141 39 -28 39 -29 14 -29
-15 0 -27 -4 -27 -8 0 -13 38 -45 68 -59 15 -6 21 -12 15 -12 -19 -1 -16 -21
4 -21 15 0 15 -2 0 -17 -15 -17 -17 -22 -17 -43 0 -5 -6 -7 -14 -4 -8 3 -32
-4 -55 -15 -49 -25 -91 -28 -91 -5 0 9 -5 12 -12 8 -8 -5 -9 -2 -5 10 5 14 3
16 -12 11 -16 -5 -21 2 -29 42 -15 65 -23 121 -16 106 3 -7 10 -13 15 -13 6 0
5 8 -1 20 -9 16 -8 19 7 13 13 -5 15 -3 8 13 -22 55 -44 138 -55 217 -8 50
-17 84 -22 79 -5 -5 -22 -74 -38 -153 -17 -79 -38 -172 -47 -207 -18 -61 -19
-62 -47 -56 -26 6 -28 4 -23 -15 3 -12 1 -19 -3 -16 -14 9 -40 -7 -40 -24 0
-9 7 -27 16 -39 14 -20 14 -22 0 -22 -25 0 -19 -19 9 -32 14 -6 25 -17 25 -25
0 -7 5 -13 10 -13 6 0 10 -7 10 -15 0 -8 7 -15 16 -15 8 0 12 -5 8 -11 -3 -6
0 -15 7 -20 9 -5 10 -11 4 -18 -9 -9 -36 -2 -99 24 -16 7 -18 5 -14 -12 5 -19
2 -20 -33 -16 l-39 6 0 -72 c0 -54 4 -73 15 -77 8 -4 12 -10 9 -15 -3 -5 0 -9
5 -9 6 0 2 -16 -9 -35 -13 -22 -20 -54 -20 -85 0 -48 1 -50 29 -50 17 0 31 -6
35 -16 5 -14 1 -16 -29 -11 -30 5 -35 3 -35 -13 0 -10 11 -27 25 -38 32 -25
32 -34 1 -22 l-25 9 -1 -426 c0 -467 -5 -432 54 -407 14 5 17 4 12 -4 -5 -8 2
-12 20 -12 32 0 97 -46 88 -62 -4 -6 -2 -8 4 -4 6 3 18 -4 26 -16 12 -17 16
-49 16 -130 0 -65 -4 -108 -10 -108 -5 0 -11 12 -11 28 l-1 27 -7 -30 c-4 -17
-3 -37 3 -45 6 -8 -2 -4 -16 9 -15 13 -25 28 -22 33 3 5 0 8 -7 7 -8 -1 -27 3
-44 10 -16 7 -47 15 -67 18 l-38 6 0 -332 0 -331 3130 0 3130 0 -2 342 -3 343
-92 3 c-51 1 -93 7 -93 12 0 18 85 80 119 87 20 4 39 8 44 9 4 1 12 2 17 3 18
2 11 31 -7 31 -17 1 -17 1 0 14 18 14 25 52 7 41 -5 -3 -10 -2 -10 4 0 5 5 13
10 16 6 4 10 70 10 166 l0 159 -62 0 c-49 0 -59 3 -50 12 7 7 34 11 62 10 l50
-2 0 300 0 299 -63 -3 c-35 -2 -74 -9 -88 -16 l-24 -13 23 25 c12 13 22 30 22
36 0 15 -26 16 -35 2 -11 -17 -23 -11 -18 9 5 18 40 31 87 31 11 0 38 5 59 11
l37 10 0 314 c0 202 -4 315 -10 315 -5 0 -15 -9 -22 -20 -17 -26 -22 -25 -36
5 -16 35 -17 34 28 28 l40 -6 0 117 c0 109 -1 116 -20 116 -21 0 -18 23 7 48
10 10 13 60 12 205 -1 106 -3 184 -6 175 -3 -13 -14 -18 -36 -17 -30 2 -31 2
-4 6 32 5 35 23 7 48 -28 25 -25 35 10 35 l30 0 0 88 c0 83 -1 89 -24 102 -16
8 -22 18 -19 28 5 12 1 14 -15 10 -25 -7 -26 -4 -12 22 14 26 -6 37 -30 15
-18 -16 -19 -15 -29 22 -17 64 -39 175 -45 223 -4 39 -4 41 5 18 14 -38 33
-36 26 2 -5 23 -3 28 8 24 25 -10 27 20 6 73 -11 28 -17 61 -15 74 5 19 4 21
-5 9 -9 -13 -11 -13 -11 3 0 15 -11 17 -100 17 -55 0 -100 -3 -101 -7z m8 -35
c-3 -8 -6 -5 -6 6 -1 11 2 17 5 13 3 -3 4 -12 1 -19z m238 -748 c3 -5 1 -10
-4 -10 -6 0 -11 5 -11 10 0 6 2 10 4 10 3 0 8 -4 11 -10z m-447 -394 c-34 -25
-17 -47 20 -27 13 7 26 1 52 -21 19 -17 28 -28 19 -25 -10 3 -32 -3 -51 -13
-33 -18 -35 -18 -46 1 -9 14 -17 16 -34 10 -20 -7 -25 -3 -39 28 l-16 36 46
12 c61 15 69 15 49 -1z m-214 -51 c-4 -8 -1 -21 5 -29 15 -18 -12 -41 -48 -41
-19 0 -27 -6 -29 -22 -2 -13 -8 -23 -14 -23 -5 0 -7 7 -4 16 4 10 -1 25 -10
35 -15 17 -14 18 17 27 19 4 34 14 34 22 0 7 9 16 20 21 30 11 35 10 29 -6z
m131 -355 c3 -5 2 -10 -4 -10 -5 0 -13 5 -16 10 -3 6 -2 10 4 10 5 0 13 -4 16
-10z m-151 -36 c6 -16 1 -19 -41 -29 -38 -8 -40 -3 -16 29 18 24 48 24 57 0z
m34 -20 c-4 -3 -12 5 -18 18 -12 22 -12 22 6 6 10 -10 15 -20 12 -24z m-4835
10 c-5 -14 -2 -16 19 -11 18 5 30 1 43 -13 17 -19 17 -20 -1 -20 -11 0 -26 -6
-32 -12 -10 -10 -15 -10 -21 1 -5 8 -18 12 -28 9 -15 -4 -22 2 -30 23 -9 23
-8 29 6 32 37 10 50 7 44 -9z m4309 4 c-20 -20 -14 -28 16 -22 19 4 32 1 41
-10 10 -12 8 -17 -17 -30 -25 -13 -32 -13 -41 -2 -7 8 -19 12 -29 9 -12 -3
-21 5 -29 26 -10 29 -10 30 21 34 17 2 35 5 41 5 5 1 4 -3 -3 -10z m-4452 -68
c0 -5 -5 -10 -11 -10 -5 0 -7 5 -4 10 3 6 8 10 11 10 2 0 4 -4 4 -10z m-6 -41
c-18 -20 -18 -21 1 -35 10 -8 38 -14 62 -14 37 0 43 -3 43 -21 0 -19 -4 -20
-57 -13 -32 4 -60 10 -63 15 -3 4 -21 7 -39 7 -24 -1 -35 -7 -39 -20 -2 -10
-12 -18 -21 -18 -13 0 -14 2 -2 9 12 8 12 12 3 24 -10 12 -8 16 14 21 14 4 24
10 21 13 -6 5 68 49 87 52 5 0 1 -8 -10 -20z m5128 -31 c26 1 50 -3 53 -8 4
-6 -8 -10 -28 -10 -19 0 -48 -3 -65 -6 -25 -5 -32 -2 -42 16 -11 21 -11 22 11
15 13 -5 45 -8 71 -7z m458 2 c18 0 18 -2 2 -40 -25 -58 -52 -55 -52 6 0 38 3
45 16 40 9 -3 24 -6 34 -6z m-573 -7 c-4 -3 -1 -13 6 -22 11 -14 10 -14 -5 -2
-16 12 -16 31 -1 31 4 0 3 -3 0 -7z m-18 -27 c10 -12 9 -14 -6 -11 -10 2 -22
4 -28 4 -5 1 -3 6 5 11 19 12 15 12 29 -4z m-4429 -22 c0 0 -9 -9 -19 -18 -19
-17 -20 -17 -30 3 -10 18 -9 20 19 18 16 -1 30 -2 30 -3z m4700 -184 c-20 -13
-33 -13 -25 0 3 6 14 10 23 10 15 0 15 -2 2 -10z m-5189 -24 c-16 -19 2 -29
38 -21 16 3 32 2 35 -3 3 -6 -14 -12 -39 -14 -39 -3 -48 0 -60 19 -20 30 -19
33 11 33 22 0 24 -3 15 -14z m-71 -16 c-14 -11 -34 -17 -45 -14 -12 3 -33 0
-48 -5 -30 -12 -32 -9 -16 17 8 13 26 18 72 19 l61 1 -24 -18z m-427 -6 c-5
-13 -2 -15 14 -10 12 4 25 1 32 -7 8 -11 5 -16 -14 -25 -18 -8 -25 -8 -25 -1
0 6 -8 9 -18 7 -12 -3 -22 3 -29 18 -11 24 -12 23 39 33 4 0 5 -6 1 -15z m887
3 c0 -2 -7 -18 -15 -35 -11 -21 -21 -29 -31 -25 -8 3 -13 12 -10 20 3 8 6 21
6 29 0 8 10 14 25 14 14 0 25 -2 25 -3z m3904 -18 c-3 -6 0 -15 7 -20 7 -4 10
-12 5 -16 -4 -4 -14 1 -22 11 -18 26 -18 36 2 36 8 0 12 -5 8 -11z m-3564 -9
c0 -5 -5 -10 -11 -10 -5 0 -7 5 -4 10 3 6 8 10 11 10 2 0 4 -4 4 -10z m3967
-41 c-16 -40 -37 -37 -37 5 0 30 3 33 24 29 22 -4 23 -7 13 -34z m-329 24
c-10 -2 -26 -2 -35 0 -10 3 -2 5 17 5 19 0 27 -2 18 -5z m-3602 -12 c-14 -5
-16 -10 -8 -15 18 -11 4 -26 -24 -26 -13 0 -24 2 -24 5 0 14 37 43 55 43 19 1
19 0 1 -7z m221 -37 c-3 -3 -12 -4 -19 -1 -8 3 -5 6 6 6 11 1 17 -2 13 -5z
m-1102 -64 c-3 -5 -10 -10 -16 -10 -5 0 -9 5 -9 10 0 6 7 10 16 10 8 0 12 -4
9 -10z m-65 -4 c0 -3 -4 -8 -10 -11 -5 -3 -10 -1 -10 4 0 6 5 11 10 11 6 0 10
-2 10 -4z m334 -15 c3 -5 -5 -8 -19 -8 -14 0 -22 3 -19 8 3 5 11 9 19 9 8 0
16 -4 19 -9z m1036 -25 c0 -2 -8 -10 -17 -17 -16 -13 -17 -12 -4 4 13 16 21
21 21 13z m4395 -6 c-3 -5 -14 -10 -23 -9 -14 0 -13 2 3 9 27 11 27 11 20 0z
m-1595 -4 c0 -3 -4 -8 -10 -11 -5 -3 -10 -1 -10 4 0 6 5 11 10 11 6 0 10 -2
10 -4z m-2701 -55 c1 -10 -2 -11 -13 -2 -12 10 -14 25 -6 51 2 8 19 -33 19
-49z m2671 28 c0 -5 -9 -9 -20 -9 -19 0 -26 11 -14 23 8 8 34 -3 34 -14z
m-3460 -4 c-7 -8 -10 -25 -6 -40 5 -20 2 -25 -16 -29 -13 -3 -30 -4 -38 -4 -9
1 -29 -2 -45 -6 -24 -6 -28 -5 -17 5 18 19 15 31 -8 24 -11 -3 -20 -2 -20 2 0
20 26 33 65 33 23 0 50 7 61 15 25 19 40 19 24 0z m3243 -5 c3 -12 0 -20 -8
-20 -8 0 -11 8 -8 20 3 11 7 20 8 20 1 0 5 -9 8 -20z m-2532 -11 c18 6 33 11
33 11 1 0 2 -9 2 -20 0 -11 -4 -20 -8 -20 -4 0 -8 -10 -8 -21 0 -16 -3 -19
-12 -11 -7 5 -28 13 -45 17 -39 8 -49 21 -33 41 10 11 16 11 26 3 10 -8 22 -8
45 0z m273 -24 c-5 -13 -2 -14 20 -6 27 11 49 -5 26 -19 -6 -4 -11 -10 -11
-14 1 -3 0 -18 0 -33 -2 -25 -2 -24 -9 7 -6 29 -8 22 -9 -35 -1 -44 -5 -64
-10 -55 -11 19 -23 148 -16 161 10 14 15 11 9 -6z m391 5 c3 -5 -3 -10 -14
-10 -12 0 -21 5 -21 10 0 6 6 10 14 10 8 0 18 -4 21 -10z m2068 -7 c-4 -11 -3
-14 5 -9 7 4 12 2 12 -6 1 -8 5 -7 14 5 11 14 16 15 22 6 4 -7 2 -15 -4 -17
-7 -2 -10 -8 -7 -13 4 -5 -1 -6 -9 -3 -16 6 -19 -7 -18 -95 0 -18 -3 -30 -8
-25 -10 11 -23 151 -15 164 10 16 15 11 8 -7z m-2006 1 c-3 -3 -12 -4 -19 -1
-8 3 -5 6 6 6 11 1 17 -2 13 -5z m-879 -13 c6 -1 12 -6 12 -12 0 -6 -7 -9 -15
-5 -8 3 -27 1 -41 -5 -32 -11 -42 -5 -24 16 6 8 22 13 34 11 11 -3 27 -5 34
-5z m42 -1 c0 -5 -4 -10 -10 -10 -5 0 -10 5 -10 10 0 6 5 10 10 10 6 0 10 -4
10 -10z m4489 -16 c-17 -20 -69 -47 -69 -35 0 12 51 50 69 51 11 0 11 -3 0
-16z m-6141 -6 c-2 -8 7 -12 25 -11 15 1 25 -2 22 -8 -6 -9 -65 -13 -65 -5 0
2 -3 11 -6 20 -4 11 -1 16 10 16 9 0 15 -6 14 -12z m286 -49 c-10 -16 -24 -9
-24 12 0 18 2 19 15 9 8 -7 12 -16 9 -21z m1886 27 c0 -2 -8 -10 -17 -17 -16
-13 -17 -12 -4 4 13 16 21 21 21 13z m-426 -32 c8 -3 13 -11 10 -19 -3 -7 5
-15 20 -19 19 -5 26 -13 26 -31 0 -30 -16 -33 -23 -5 -3 14 -14 20 -31 20 -22
0 -26 4 -26 30 0 32 1 33 24 24z m411 -24 c-3 -5 -12 -10 -18 -10 -7 0 -6 4 3
10 19 12 23 12 15 0z m2322 -12 c-3 -8 -6 -5 -6 6 -1 11 2 17 5 13 3 -3 4 -12
1 -19z m-2858 -25 c1 21 29 23 37 2 5 -12 9 -13 20 -4 8 7 17 10 20 7 7 -8
-46 -40 -59 -35 -7 2 -22 0 -34 -4 -14 -5 -23 -5 -23 1 0 6 5 10 10 10 6 0 10
10 11 23 0 21 1 21 9 2 7 -17 9 -17 9 -2z m-649 -13 c-33 -26 -52 -25 -21 0
13 11 28 20 35 20 6 0 0 -9 -14 -20z m-856 -18 c3 -5 -1 -9 -9 -9 -8 0 -15 4
-15 9 0 4 4 8 9 8 6 0 12 -4 15 -8z m1420 -7 c-4 -8 -10 -15 -14 -15 -4 0 -10
7 -14 15 -4 10 1 15 14 15 13 0 18 -5 14 -15z m3066 -4 c0 -5 -7 -11 -15 -15
-9 -3 -15 0 -15 9 0 8 7 15 15 15 8 0 15 -4 15 -9z m100 -105 c-4 -4 -22 -5
-40 -1 l-32 7 28 17 c26 16 30 16 41 2 6 -9 8 -20 3 -25z m1115 -16 c-11 -17
5 -32 21 -19 11 9 14 8 14 -5 0 -20 -17 -20 -60 -2 -30 12 -31 14 -14 24 24
14 47 15 39 2z m-5071 -56 c3 -8 10 -12 16 -9 5 3 10 1 10 -4 0 -14 -16 -14
-41 0 -11 5 -17 14 -14 20 9 14 22 11 29 -7z m713 -9 c-15 -32 -27 -32 -27 0
0 18 5 25 19 25 17 0 18 -3 8 -25z m-387 -95 c0 -5 -10 -10 -22 -10 -19 0 -20
2 -8 10 19 13 30 13 30 0z m560 0 c0 -5 -2 -10 -4 -10 -3 0 -8 5 -11 10 -3 6
-1 10 4 10 6 0 11 -4 11 -10z m3276 -30 c0 -11 -6 -20 -13 -20 -15 0 -15 2 -7
24 9 22 20 20 20 -4z m-4741 -68 c-2 -2 -13 -1 -26 3 -16 5 -18 9 -9 15 11 7
43 -10 35 -18z m1383 3 c1 -14 -2 -25 -6 -26 -82 -6 -82 -6 -69 9 10 13 9 15
-10 10 -13 -4 -23 -2 -23 2 0 5 17 12 38 15 20 4 42 8 47 10 19 6 21 5 23 -20z
m-1448 -15 c0 -5 -7 -10 -16 -10 -8 0 -12 5 -9 10 3 6 10 10 16 10 5 0 9 -4 9
-10z m-63 -15 c0 -8 -4 -15 -9 -15 -10 0 -11 14 -1 23 9 10 10 9 10 -8z m683
-25 c0 -5 -5 -10 -11 -10 -5 0 -7 5 -4 10 3 6 8 10 11 10 2 0 4 -4 4 -10z
m-337 -17 c-13 -2 -33 -2 -45 0 -13 2 -3 4 22 4 25 0 35 -2 23 -4z m201 -7
c-7 -19 -67 -41 -72 -26 -2 5 -10 10 -18 10 -9 0 -13 4 -10 9 3 5 14 7 24 5 9
-3 28 -1 42 5 35 14 40 13 34 -3z m73 -14 c8 -5 -2 -12 -27 -19 -41 -10 -49
-6 -28 15 14 14 37 15 55 4z m129 -12 c0 -23 -1 -23 -28 -9 -17 9 -18 13 -7
20 23 14 35 10 35 -11z m144 -2 c17 -21 17 -25 3 -40 -9 -11 -14 -29 -11 -48
3 -20 0 -30 -9 -30 -9 0 -13 19 -13 70 0 39 3 70 6 70 3 0 14 -10 24 -22z
m3738 -5 c-17 -21 0 -28 34 -15 l31 11 -23 -24 c-12 -13 -19 -28 -15 -34 9
-15 121 -11 163 5 27 11 32 11 32 -2 0 -10 10 -14 34 -12 28 2 44 -7 95 -51
90 -78 98 -101 56 -147 -19 -20 -25 -23 -25 -10 0 9 5 16 10 16 6 0 10 6 10
13 0 23 -28 15 -39 -11 -10 -20 -14 -22 -27 -11 -13 10 -17 10 -24 -1 -6 -10
-9 -5 -12 16 l-4 29 -13 -27 c-12 -23 -17 -26 -34 -16 -17 9 -19 8 -13 -7 5
-15 4 -16 -9 -5 -8 7 -26 10 -39 8 -17 -3 -27 0 -31 11 -5 12 -8 13 -14 2 -6
-10 -10 -9 -15 4 -3 9 -3 21 0 26 3 5 0 8 -8 7 -7 -2 -16 -11 -20 -21 -4 -10
-12 -16 -17 -13 -5 3 -7 -4 -4 -16 4 -21 3 -21 -7 -5 -11 18 -12 18 -27 0 -8
-10 -11 -11 -7 -3 4 8 14 23 22 33 8 9 12 17 8 17 -13 0 -61 -41 -68 -58 -5
-13 -7 -11 -7 7 -1 24 -1 24 -22 5 l-21 -19 6 32 c5 22 1 45 -13 77 l-20 45
35 7 c19 3 48 4 64 2 36 -5 37 3 9 49 -21 34 -53 55 -101 67 -21 5 -31 2 -40
-14 -7 -11 -20 -20 -30 -20 -9 0 -24 -7 -33 -16 -15 -15 -15 -18 1 -35 17 -19
12 -39 -12 -39 -15 0 -17 31 -5 84 7 33 50 54 114 55 20 1 37 5 37 9 0 4 11 8
25 8 19 0 22 -3 13 -13z m-3158 -8 c0 -2 -10 -10 -22 -16 -21 -11 -22 -11 -9
4 13 16 31 23 31 12z m-751 -64 c19 -26 21 -44 21 -169 0 -112 -3 -142 -15
-152 -9 -8 -15 -9 -15 -2 0 6 5 14 10 17 13 8 13 25 -1 25 -5 0 -7 -5 -3 -11
4 -7 1 -10 -7 -7 -8 3 -13 12 -11 19 2 8 0 10 -4 6 -11 -11 -14 -38 -3 -31 5
3 9 1 9 -5 0 -5 -4 -13 -10 -16 -5 -3 -10 -1 -10 5 0 8 -10 9 -30 5 -26 -6
-29 -4 -24 12 4 13 1 12 -8 -4 -7 -12 -17 -22 -22 -21 -5 0 -13 -6 -18 -14 -5
-8 -6 -3 -2 15 5 24 4 26 -12 20 -11 -3 -22 -11 -26 -17 -5 -7 -8 -7 -8 2 0 7
-5 10 -12 6 -7 -4 -8 -3 -4 5 4 6 12 8 18 5 6 -4 6 2 -1 15 -7 11 -14 21 -17
21 -3 0 -3 -4 0 -9 3 -4 -3 -16 -13 -25 -16 -14 -20 -15 -30 -2 -7 8 -10 21
-6 28 4 7 1 6 -7 -2 -15 -17 -40 -20 -50 -5 -4 6 -5 -8 -1 -29 5 -29 3 -37 -6
-32 -7 5 -10 14 -7 22 7 18 1 18 -18 -1 -13 -13 -20 -14 -38 -4 -20 11 -21 10
-10 -3 10 -13 9 -18 -5 -29 -16 -13 -17 -12 -4 4 11 14 11 17 0 18 -8 1 -26 3
-41 4 -21 3 -28 -1 -31 -18 -2 -12 -5 22 -6 75 -1 91 0 98 22 110 12 7 25 11
30 10 4 -1 7 3 7 8 0 6 13 10 29 10 15 0 41 4 57 9 16 5 62 19 102 30 101 30
90 42 -15 15 -161 -39 -154 -39 -101 -1 45 32 82 44 200 62 41 6 58 23 37 35
-19 12 51 40 73 29 9 -5 26 -22 37 -38z m4276 39 c-3 -5 -12 -10 -18 -10 -7 0
-6 4 3 10 19 12 23 12 15 0z m831 -47 c-2 -3 -19 3 -36 13 l-31 19 33 11 c31
10 33 10 36 -13 2 -14 1 -27 -2 -30z m233 -12 c27 -15 51 -3 51 25 0 24 0 24
28 7 15 -9 29 -18 31 -19 2 -2 -21 -30 -50 -64 -31 -36 -58 -59 -66 -55 -8 2
-12 1 -9 -4 5 -8 -35 -41 -49 -41 -7 0 -6 205 2 213 3 4 14 -6 24 -22 10 -17
27 -34 38 -40z m-1629 52 c0 -14 -20 -39 -20 -25 0 6 -7 12 -15 12 -8 0 -15 5
-15 10 0 6 11 10 25 10 14 0 25 -3 25 -7z m628 -57 c-3 -13 -7 -13 -28 -1
l-25 14 25 9 c26 10 34 3 28 -22z m678 -12 c29 -25 51 -51 47 -57 -3 -6 -1 -7
5 -3 21 12 43 -51 40 -112 l-3 -57 -39 -3 c-21 -2 -45 -1 -53 2 -13 6 -13 9 1
31 20 30 20 36 1 29 -15 -6 -20 5 -16 35 2 7 -3 10 -9 6 -5 -3 -31 12 -57 34
-25 23 -53 41 -62 41 -9 1 0 10 19 21 27 16 29 19 10 14 -14 -4 -59 -9 -100
-12 -49 -3 -82 -11 -94 -22 -15 -13 -116 -44 -116 -35 0 12 157 104 178 104
15 1 41 7 57 15 17 7 54 14 83 14 50 1 58 -2 108 -45z m-468 -7 c9 6 16 16 14
22 -2 9 3 9 18 1 11 -6 20 -14 20 -19 0 -19 -89 -103 -101 -96 -7 5 -10 4 -6
-2 4 -6 0 -13 -8 -17 -13 -4 -15 8 -15 76 l0 82 30 -29 c25 -24 34 -27 48 -18z
m-5128 -3 c0 -14 -3 -14 -15 -4 -8 7 -15 14 -15 16 0 2 7 4 15 4 8 0 15 -7 15
-16z m141 -20 c16 -8 29 -11 28 -7 -1 4 -1 15 0 22 1 12 4 12 13 3 9 -9 2 -22
-32 -57 -46 -47 -52 -48 -56 -12 -4 29 7 95 13 79 3 -7 18 -19 34 -28z m4129
17 c0 -10 -7 -24 -14 -31 -13 -10 -14 -7 -12 17 4 34 4 33 16 33 6 0 10 -8 10
-19z m-210 -11 c0 -10 -42 -46 -70 -60 l-24 -13 17 27 c10 14 14 26 10 26 -4
0 1 6 11 13 18 13 56 18 56 7z m1160 5 c0 -2 -10 -10 -22 -16 -21 -11 -22 -11
-9 4 13 16 31 23 31 12z m-5000 -9 c0 -2 -8 -10 -17 -17 -16 -13 -17 -12 -4 4
13 16 21 21 21 13z m3931 -5 c-8 -5 -20 -7 -28 -4 -21 8 -15 13 15 13 20 0 23
-3 13 -9z m79 -1 c0 -5 -2 -10 -4 -10 -3 0 -8 5 -11 10 -3 6 -1 10 4 10 6 0
11 -4 11 -10z m-125 -9 c3 -5 2 -12 -3 -15 -5 -3 -9 1 -9 9 0 17 3 19 12 6z
m-309 -23 c4 -7 3 -8 -4 -4 -7 4 -12 3 -12 -3 0 -5 5 -13 10 -16 12 -7 14 -35
2 -35 -13 0 -32 39 -26 55 7 18 20 20 30 3z m-2666 -8 c0 -5 -5 -10 -11 -10
-5 0 -7 5 -4 10 3 6 8 10 11 10 2 0 4 -4 4 -10z m-40 -30 c0 -5 -2 -10 -4 -10
-3 0 -8 5 -11 10 -3 6 -1 10 4 10 6 0 11 -4 11 -10z m-73 -22 c-3 -8 -6 -5 -6
6 -1 11 2 17 5 13 3 -3 4 -12 1 -19z m4193 8 c-14 -8 -28 -12 -32 -10 -4 3 -5
-2 -2 -10 6 -15 -4 -20 -32 -17 -6 1 -17 -10 -24 -24 -7 -13 -16 -22 -21 -20
-4 3 -5 -5 -1 -17 3 -13 1 -19 -6 -15 -5 4 -13 1 -16 -5 -3 -7 -3 3 0 22 8 57
11 65 23 62 6 -1 10 3 9 10 -2 7 20 17 52 24 73 16 79 16 50 0z m-1373 -37
c-8 -13 -15 -15 -24 -7 -14 11 -7 32 8 22 5 -3 9 -2 8 3 -3 19 2 27 10 14 6
-9 5 -21 -2 -32z m91 7 c-2 -38 -18 -39 -18 -2 0 20 7 36 17 36 2 0 3 -15 1
-34z m132 16 c0 -13 -23 -32 -39 -32 -11 0 -10 4 5 19 20 21 34 26 34 13z
m-87 -22 c-5 -20 -21 -36 -27 -29 -2 2 0 14 5 27 10 27 29 29 22 2z m-2648 0
c-3 -5 -12 -10 -18 -10 -7 0 -6 4 3 10 19 12 23 12 15 0z m3092 -17 c-3 -3
-11 -2 -17 2 -9 6 -9 10 1 16 14 8 27 -7 16 -18z m-552 8 c-3 -5 3 -12 14 -16
11 -3 25 -13 33 -22 9 -12 9 -15 0 -9 -7 4 -15 1 -18 -9 -6 -13 -8 -14 -15 -3
-7 11 -11 10 -19 -2 -5 -8 -10 -10 -10 -4 0 5 5 15 12 22 6 6 8 15 4 19 -4 4
-11 1 -16 -7 -6 -8 -10 -11 -10 -7 0 11 20 47 26 47 3 0 3 -4 -1 -9z m1205
-16 c-7 -9 -15 -13 -17 -11 -7 7 7 26 19 26 6 0 6 -6 -2 -15z m-375 -17 c-19
-11 -30 -5 -21 11 4 6 14 7 22 4 15 -5 14 -7 -1 -15z m41 -20 c4 -6 3 -8 -4
-4 -5 3 -13 0 -15 -6 -3 -8 -6 -6 -6 5 -1 19 14 23 25 5z m-2976 -17 c0 -5 -9
-7 -20 -4 -11 3 -20 7 -20 9 0 2 9 4 20 4 11 0 20 -4 20 -9z m-1006 -15 c7 3
19 -3 27 -13 13 -17 13 -17 -4 -4 -15 12 -20 12 -30 1 -9 -10 -9 -11 1 -6 6 4
12 2 12 -3 0 -6 -7 -11 -15 -11 -10 0 -15 9 -14 28 0 15 3 22 5 15 3 -7 11
-10 18 -7z m66 -7 c0 -11 -5 -17 -10 -14 -6 4 -8 10 -5 15 3 5 -3 11 -12 13
-14 4 -13 5 5 6 16 1 22 -5 22 -20z m2650 -20 c0 -11 -4 -18 -10 -14 -5 3 -7
12 -3 20 7 21 13 19 13 -6z m-3173 -11 c-3 -8 -6 -5 -6 6 -1 11 2 17 5 13 3
-3 4 -12 1 -19z m32 -18 c0 -10 -3 -8 -9 5 -12 27 -12 43 0 25 5 -8 9 -22 9
-30z m3178 18 c-3 -8 -6 -5 -6 6 -1 11 2 17 5 13 3 -3 4 -12 1 -19z m-331 -20
c-11 -15 -16 -18 -16 -7 0 16 21 42 28 34 2 -2 -3 -14 -12 -27z m-1179 -20
c-3 -7 -5 -2 -5 12 0 14 2 19 5 13 2 -7 2 -19 0 -25z m-1497 12 c0 -5 -2 -10
-4 -10 -3 0 -8 5 -11 10 -3 6 -1 10 4 10 6 0 11 -4 11 -10z m2860 -11 c0 -6
-4 -7 -10 -4 -5 3 -10 11 -10 16 0 6 5 7 10 4 6 -3 10 -11 10 -16z m-3153 -21
c-3 -8 -6 -5 -6 6 -1 11 2 17 5 13 3 -3 4 -12 1 -19z m2172 -8 c11 -24 11 -24
-3 -6 -9 11 -16 24 -16 30 0 12 5 7 19 -24z m27 13 c20 -27 17 -35 -6 -16 -20
17 -26 33 -14 33 4 0 13 -8 20 -17z m102 -8 c-3 -3 -9 2 -12 12 -6 14 -5 15 5
6 7 -7 10 -15 7 -18z m52 19 c0 0 -9 -11 -19 -23 l-19 -22 2 24 c0 14 7 23 18
23 10 0 18 -1 18 -2z m300 -19 c0 -2 -6 -2 -14 1 -9 4 -16 -3 -19 -18 -3 -16
-4 -13 -4 9 1 27 4 30 19 22 10 -5 18 -12 18 -14z m185 -3 c-6 -7 -34 11 -29
19 3 5 11 3 19 -4 7 -6 12 -13 10 -15z m-456 -5 c0 -9 -2 -8 -6 1 -2 6 -10 9
-15 6 -7 -4 -8 -2 -4 5 9 13 26 5 25 -12z m-2358 -10 c-10 -9 -11 -8 -5 6 3
10 9 15 12 12 3 -3 0 -11 -7 -18z m2702 -2 c-3 -9 -8 -14 -10 -11 -3 3 -2 9 2
15 9 16 15 13 8 -4z m-105 -70 c-3 -3 -9 2 -12 12 -6 14 -5 15 5 6 7 -7 10
-15 7 -18z"/>
<path d="M732 671 c-11 -7 -11 -9 0 -14 9 -3 15 1 15 9 0 8 -1 14 -1 14 -1 0
-7 -4 -14 -9z"/>
<path d="M420 666 c0 -3 9 -10 20 -16 11 -6 20 -8 20 -6 0 3 -9 10 -20 16 -11
6 -20 8 -20 6z"/>
<path d="M394 647 c-4 -6 -4 -9 1 -5 4 4 14 3 22 -4 7 -6 15 -9 18 -7 2 3 -4
10 -15 17 -15 9 -21 9 -26 -1z"/>
<path d="M6178 4033 c12 -2 30 -2 40 0 9 3 -1 5 -23 4 -22 0 -30 -2 -17 -4z"/>
<path d="M6136 3958 c3 -5 10 -6 15 -3 13 9 11 12 -6 12 -8 0 -12 -4 -9 -9z"/>
<path d="M2234 2541 c3 -5 -3 -11 -14 -14 -13 -3 -18 -1 -14 5 13 21 -47 -3
-96 -38 -53 -38 -61 -47 -32 -38 13 5 14 4 3 -4 -8 -6 -20 -8 -27 -5 -7 2 -17
-5 -24 -16 -6 -12 -16 -21 -23 -21 -7 0 -25 -10 -40 -23 l-29 -22 51 0 c50 0
85 14 40 16 -13 1 -27 1 -31 0 -5 0 -8 3 -8 8 0 5 14 11 30 13 17 3 30 1 30
-4 0 -5 5 -6 10 -3 6 4 87 6 180 5 159 -1 169 0 164 17 -4 11 -3 14 3 7 4 -6
15 -14 23 -17 12 -4 12 -6 -1 -6 -9 -1 -19 -8 -23 -16 -4 -12 -36 -15 -168
-18 -128 -3 -117 -3 54 -3 119 0 215 3 212 7 -2 4 2 10 8 13 7 3 2 3 -11 0
-16 -4 -21 -3 -17 5 4 6 1 11 -8 11 -8 0 -28 12 -45 26 -17 14 -38 24 -46 21
-9 -4 -12 -1 -9 7 4 11 -42 52 -56 49 -3 -1 -12 5 -20 12 -18 17 -73 38 -66
26z m41 -21 c3 -5 2 -10 -4 -10 -5 0 -13 5 -16 10 -3 6 -2 10 4 10 5 0 13 -4
16 -10z m93 -56 c2 -1 0 -4 -5 -7 -4 -3 -17 7 -27 22 l-20 26 25 -20 c13 -11
25 -21 27 -21z m-236 19 c-10 -4 -10 -8 -1 -19 6 -8 8 -15 3 -16 -5 -1 32 -5
81 -8 l90 -6 -115 -1 c-80 -1 -108 1 -92 8 13 5 20 13 17 19 -8 13 3 30 18 29
8 0 8 -2 -1 -6z m138 -23 c0 -5 -4 -10 -10 -10 -5 0 -10 5 -10 10 0 6 5 10 10
10 6 0 10 -4 10 -10z m67 -10 c14 -11 22 -20 18 -20 -4 0 -18 9 -32 20 -14 11
-22 20 -18 20 4 0 18 -9 32 -20z m131 -62 c8 -10 2 -13 -25 -15 -32 -2 -34 -1
-17 12 24 18 29 18 42 3z"/>
<path d="M2538 2373 c7 -3 16 -2 19 1 4 3 -2 6 -13 5 -11 0 -14 -3 -6 -6z"/>
<path d="M2590 2356 c0 -2 8 -10 18 -17 15 -13 16 -12 3 4 -13 16 -21 21 -21
13z"/>
<path d="M2642 2314 c10 -10 20 -16 22 -13 3 3 -5 11 -17 18 -21 13 -21 12 -5
-5z"/>
<path d="M2057 1833 c-4 -3 -7 -11 -7 -17 0 -6 5 -5 12 2 6 6 9 14 7 17 -3 3
-9 2 -12 -2z"/>
<path d="M4517 1833 c-4 -3 -7 -11 -7 -17 0 -6 5 -5 12 2 6 6 9 14 7 17 -3 3
-9 2 -12 -2z"/>
<path d="M2986 1733 c-4 -18 -12 -33 -16 -33 -5 0 -7 -7 -3 -16 3 -8 1 -25 -5
-37 -5 -12 -13 -31 -17 -42 -6 -19 -7 -19 -19 4 -13 23 -13 22 -28 -23 -12
-37 -13 -48 -3 -54 7 -4 15 -16 18 -27 4 -18 5 -18 6 3 0 12 6 22 12 22 7 0 9
11 6 26 -4 22 -2 25 17 20 11 -3 24 -6 28 -6 4 0 9 -21 11 -47 l3 -48 2 46 c2
39 6 48 25 53 18 5 20 8 7 16 -11 7 -12 10 -2 10 10 0 12 8 6 33 -4 17 -8 43
-10 56 -1 13 -7 27 -12 30 -5 3 -12 15 -14 26 -3 16 -6 13 -12 -12z"/>
<path d="M3572 1740 c-7 -11 -10 -26 -6 -32 5 -7 2 -9 -7 -6 -12 5 -14 0 -11
-21 2 -14 -3 -42 -11 -61 -15 -34 -15 -35 11 -46 24 -9 26 -15 23 -52 -1 -25
2 -42 8 -42 6 0 11 19 11 44 0 37 4 45 23 50 18 5 20 8 7 16 -10 6 -11 10 -2
10 6 0 12 7 12 15 0 8 -4 15 -9 15 -5 0 -8 16 -7 35 2 19 -1 35 -6 35 -5 0 -6
5 -3 10 3 6 2 10 -4 10 -5 0 -11 9 -13 20 -3 21 -3 21 -16 0z"/>
<path d="M3708 1743 c0 -10 -1 -24 -1 -30 1 -7 -3 -13 -8 -13 -5 0 -9 -11 -9
-24 0 -13 -7 -39 -15 -59 -14 -34 -14 -35 10 -41 22 -6 25 -12 25 -51 0 -25 5
-45 10 -45 6 0 10 20 10 45 0 35 4 45 16 45 10 0 14 6 10 15 -3 8 -1 15 4 15
6 0 10 7 10 15 0 8 -4 15 -9 15 -5 0 -8 16 -7 35 2 19 -1 35 -6 35 -5 0 -6 5
-3 10 3 6 1 10 -4 10 -6 0 -11 9 -11 20 0 25 -19 27 -22 3z"/>
<path d="M3986 1713 c-4 -18 -11 -33 -14 -33 -4 0 -8 -12 -9 -27 0 -16 -4 -40
-8 -54 -5 -21 -3 -27 13 -31 16 -5 22 -16 25 -49 l4 -44 1 41 c2 34 6 43 25
48 18 5 20 8 7 16 -10 6 -11 10 -2 10 6 0 12 7 12 15 0 8 -4 15 -8 15 -4 0 -7
12 -7 28 1 15 -4 34 -11 42 -7 8 -14 24 -16 35 -3 15 -6 13 -12 -12z"/>
<path d="M2826 1708 c-5 -16 -12 -28 -18 -28 -5 0 -6 -5 -2 -11 8 -14 -16 -89
-29 -89 -6 0 -8 3 -4 6 3 3 1 20 -5 36 -10 29 -12 30 -25 13 -7 -11 -13 -27
-13 -37 0 -10 -4 -18 -9 -18 -6 0 -8 8 -6 18 1 10 -3 26 -10 36 -13 17 -14 17
-24 -2 -6 -11 -8 -22 -5 -25 3 -3 3 -11 -1 -18 -5 -8 -12 -2 -20 17 -13 31
-13 31 -34 -33 -8 -28 -7 -34 8 -42 10 -6 23 -6 32 0 23 14 29 11 30 -18 2
-25 2 -25 6 -5 6 30 32 40 48 18 12 -15 14 -14 26 14 10 22 20 30 34 28 16 -2
21 -13 26 -48 l6 -45 1 43 c2 31 6 42 18 42 10 0 14 6 10 15 -3 8 -1 15 4 15
6 0 10 7 10 15 0 8 -4 15 -10 15 -5 0 -8 14 -6 30 2 17 -1 30 -6 30 -5 0 -6 5
-3 10 3 6 2 10 -4 10 -5 0 -11 8 -14 18 -3 13 -6 10 -11 -10z"/>
<path d="M1940 1675 c0 -8 -3 -15 -7 -15 -5 0 -9 -12 -9 -27 -1 -16 -5 -38 -9
-51 -6 -19 -3 -24 14 -29 11 -3 21 -9 21 -15 0 -5 6 -3 14 4 8 7 12 16 10 20
-2 4 0 10 6 13 6 4 8 16 4 27 -3 11 -7 26 -8 32 -9 47 -36 78 -36 41z"/>
<path d="M3826 1641 c-4 -6 -9 -19 -11 -28 -2 -10 -6 -30 -10 -45 -6 -22 -4
-28 9 -28 9 0 16 -5 16 -11 0 -6 7 -3 16 5 11 12 14 26 9 54 -8 46 -20 69 -29
53z"/>
<path d="M2381 1595 c-6 -22 -11 -45 -11 -52 0 -14 20 -22 38 -15 16 6 15 64
-2 87 -13 18 -15 17 -25 -20z"/>
<path d="M3091 1593 c-13 -47 -14 -63 -2 -63 5 0 12 -10 14 -22 l4 -23 2 23
c0 12 6 22 11 22 15 0 11 62 -5 83 -13 18 -14 16 -24 -20z"/>
<path d="M4127 1620 c-2 -8 -9 -30 -15 -48 -9 -27 -8 -34 7 -41 28 -16 44 2
36 40 -4 19 -11 41 -15 49 -8 13 -9 13 -13 0z"/>
<path d="M3167 1594 c-2 -5 -8 -24 -12 -41 -6 -29 -4 -33 14 -33 16 0 21 6 21
28 0 30 -15 59 -23 46z"/>
<path d="M3831 1494 c0 -11 3 -14 6 -6 3 7 2 16 -1 19 -3 4 -6 -2 -5 -13z"/>
<path d="M0 735 l0 -55 50 0 c47 0 60 7 43 24 -5 4 -8 13 -8 19 0 7 -5 12 -12
12 -6 0 -21 12 -33 28 -12 15 -26 27 -31 27 -5 0 -9 -25 -9 -55z"/>
<path d="M6233 735 c0 -22 2 -30 4 -17 2 12 2 30 0 40 -3 9 -5 -1 -4 -23z"/>
<path d="M2211 663 c7 -12 15 -20 18 -17 3 2 -3 12 -13 22 -17 16 -18 16 -5
-5z"/>
<path d="M125 661 c-6 -11 13 -26 22 -17 4 3 0 6 -8 6 -11 0 -11 2 1 10 9 6
10 10 3 10 -6 0 -14 -4 -18 -9z"/>
<path d="M3365 649 c-4 -6 -5 -12 -2 -15 2 -3 7 2 10 11 7 17 1 20 -8 4z"/>
<path d="M3821 644 c0 -11 3 -14 6 -6 3 7 2 16 -1 19 -3 4 -6 -2 -5 -13z"/>
<path d="M171 614 c0 -11 3 -14 6 -6 3 7 2 16 -1 19 -3 4 -6 -2 -5 -13z"/>
</g>
</svg>
